<?xml version="1.0" standalone="no"?><!-- Generator: Gravit.io --><svg xmlns="http://www.w3.org/2000/svg" xmlns:xlink="http://www.w3.org/1999/xlink" style="isolation:isolate" viewBox="0 0 1024 1024" width="1024px" height="1024px"><defs><clipPath id="_clipPath_d2bOskswmA0mVXOx8R26QsMclQ9LofoO"><rect width="1024" height="1024"/></clipPath></defs><g clip-path="url(#_clipPath_d2bOskswmA0mVXOx8R26QsMclQ9LofoO)"><rect width="1024" height="1024" style="fill:rgb(31,244,255)" fill-opacity="0"/><g filter="url(#KrQT84F6yOHsypylGNaoM84QgPmWTkvR)"><path d=" M 551.098 917.387 L 496.021 917.387 L 387.227 781.092 L 387.227 781.092 Q 368.868 782.91 349.15 782.91 L 349.15 782.91 L 221.317 782.91 L 221.317 917.387 L 171 917.387 L 171 493.36 L 349.15 493.36 L 349.15 493.36 Q 440.264 493.36 491.941 532.128 L 491.941 532.128 L 491.941 532.128 Q 543.618 570.896 543.618 638.74 L 543.618 638.74 L 543.618 638.74 Q 543.618 688.412 515.4 722.637 L 515.4 722.637 L 515.4 722.637 Q 487.181 756.862 434.825 772.006 L 434.825 772.006 L 551.098 917.387 Z  M 347.79 744.747 L 347.79 744.747 Q 418.505 744.747 455.903 716.883 L 455.903 716.883 L 455.903 716.883 Q 493.301 689.018 493.301 638.74 L 493.301 638.74 L 493.301 638.74 Q 493.301 587.251 455.903 559.69 L 455.903 559.69 L 455.903 559.69 Q 418.505 532.128 347.79 532.128 L 347.79 532.128 L 221.317 532.128 L 221.317 744.747 L 347.79 744.747 Z " fill-rule="evenodd" fill="rgb(255,255,255)"/><path d=" M 680.29 106.613 L 680.29 106.613 Q 761.885 106.613 807.443 148.41 L 807.443 148.41 L 807.443 148.41 Q 853 190.207 853 269.561 L 853 269.561 L 853 534.275 L 803.363 534.275 L 803.363 270.772 L 803.363 270.772 Q 803.363 208.985 768.345 177.789 L 768.345 177.789 L 768.345 177.789 Q 733.327 146.593 672.811 146.593 L 672.811 146.593 L 672.811 146.593 Q 608.894 146.593 572.856 179.606 L 572.856 179.606 L 572.856 179.606 Q 536.819 212.62 536.819 280.464 L 536.819 280.464 L 536.819 603.436 L 487.181 534.275 L 487.181 270.772 L 487.181 270.772 Q 487.181 208.985 453.183 177.789 L 453.183 177.789 L 453.183 177.789 Q 419.185 146.593 358.669 146.593 L 358.669 146.593 L 358.669 146.593 Q 294.073 146.593 257.695 179.606 L 257.695 179.606 L 257.695 179.606 Q 221.317 212.62 221.317 280.464 L 221.317 280.464 L 221.317 534.275 L 171 534.275 L 171 110.247 L 219.277 110.247 L 219.277 181.121 L 219.277 181.121 Q 238.996 144.775 277.754 125.694 L 277.754 125.694 L 277.754 125.694 Q 316.512 106.613 369.548 106.613 L 369.548 106.613 L 369.548 106.613 Q 425.305 106.613 465.083 127.511 L 465.083 127.511 L 465.083 127.511 Q 504.86 148.41 522.539 185.967 L 522.539 185.967 L 522.539 185.967 Q 542.938 147.198 584.076 126.906 L 584.076 126.906 L 584.076 126.906 Q 625.213 106.613 680.29 106.613 L 680.29 106.613 Z " fill="rgb(255,255,255)"/></g><defs><filter id="KrQT84F6yOHsypylGNaoM84QgPmWTkvR" x="-200%" y="-200%" width="400%" height="400%" filterUnits="objectBoundingBox" color-interpolation-filters="sRGB"><feGaussianBlur xmlns="http://www.w3.org/2000/svg" in="SourceGraphic" stdDeviation="21.46804531419514"/><feOffset xmlns="http://www.w3.org/2000/svg" dx="40" dy="40" result="pf_100_offsetBlur"/><feFlood xmlns="http://www.w3.org/2000/svg" flood-color="#000000" flood-opacity="0.4"/><feComposite xmlns="http://www.w3.org/2000/svg" in2="pf_100_offsetBlur" operator="in" result="pf_100_dropShadow"/><feBlend xmlns="http://www.w3.org/2000/svg" in="SourceGraphic" in2="pf_100_dropShadow" mode="normal"/></filter></defs></g></svg>