<?xml version="1.0" encoding="UTF-8" standalone="no"?>
<!DOCTYPE svg PUBLIC "-//W3C//DTD SVG 1.1//EN" "http://www.w3.org/Graphics/SVG/1.1/DTD/svg11.dtd">
<svg width="100%" height="100%" viewBox="0 0 512 512" version="1.1" xmlns="http://www.w3.org/2000/svg"
     xml:space="preserve"
     style="fill-rule:evenodd;clip-rule:evenodd;stroke-linejoin:round;stroke-miterlimit:2;"
>
    <g transform="matrix(1,0,0,1,-545.224,-0.534483)">
        <g id="Black" transform="matrix(1,0,0,1.00392,545.224,0.534483)">
            <rect x="0" y="0" width="512" height="510" style="fill:none;"/>
            <g transform="matrix(1.27586,0,0,1.27586,-53.8276,-82.3151)">
                <g transform="matrix(1,0,0,1,-42.5,4.98047)">
                    <g transform="matrix(0.596154,-2.4259e-18,9.91409e-19,1.0791,243.308,-21.582)">
                        <path d="M145,200L210,320L80,320L145,200ZM97.099,312.986L192.901,312.986L145,224.554L97.099,312.986Z"/>
                    </g>
                    <g transform="matrix(-0.596154,7.51485e-17,-1.33661e-16,-1.0791,470.192,539.551)">
                        <path d="M145,200L210,320L80,320L145,200ZM192.901,312.986L145,224.554L97.099,312.986L192.901,312.986Z"/>
                    </g>
                </g>
                <g transform="matrix(0.898337,0,0,1,-6.61642,5.81503)">
                    <g transform="matrix(6.12323e-17,-0.996094,0.541667,3.3038e-17,81.6667,403.418)">
                        <path d="M145,200L210,320L80,320L145,200ZM145,220.991L99.829,304.384L190.171,304.384L145,220.991Z"/>
                    </g>
                    <g transform="matrix(6.12323e-17,0.996094,-0.541667,3.3038e-17,298.333,114.551)">
                        <path d="M145,200L210,320L80,320L145,200ZM190.171,304.384L145,220.991L99.829,304.384L190.171,304.384Z"/>
                    </g>
                </g>
            </g>
        </g>
    </g>
</svg>
